<svg width="322" height="96" viewBox="0 0 322 96" fill="none" xmlns="http://www.w3.org/2000/svg">
<path d="M8.592 66.248C7.408 66.248 6.544 65.944 6 65.336C5.456 64.728 5.184 63.736 5.184 62.36C5.184 60.536 5.44 57.752 5.952 54.008C6.464 50.264 7.44 43.96 8.88 35.096L7.392 32.168C9.536 30.824 11.44 30.152 13.104 30.152C14.512 30.152 15.216 31 15.216 32.696C15.216 32.984 15.072 34.024 14.784 35.816C14.496 37.576 14.176 39.544 13.824 41.72C12.896 47.576 12.208 51.928 11.76 54.776C11.344 57.624 11.136 59.624 11.136 60.776C11.136 61.608 11.312 62.328 11.664 62.936C12.048 63.512 12.64 64.008 13.44 64.424C11.744 65.64 10.128 66.248 8.592 66.248ZM19.152 66.2C17.168 66.2 15.216 65.944 13.296 65.432C11.376 64.952 9.76 64.28 8.448 63.416L10.032 61.4H20.784C22.704 61.176 24.448 60.76 26.016 60.152C26.304 61.112 26.448 61.816 26.448 62.264C26.448 63.608 25.856 64.6 24.672 65.24C23.52 65.88 21.68 66.2 19.152 66.2ZM17.136 51.56C15.504 51.56 13.504 51.24 11.136 50.6L11.808 47.288C13.504 47.544 15.536 47.672 17.904 47.672L21.456 46.808C21.456 46.904 21.456 47.016 21.456 47.144C21.456 47.24 21.472 47.336 21.504 47.432C21.504 47.528 21.504 47.624 21.504 47.72C21.504 47.816 21.504 47.896 21.504 47.96C21.504 49.112 21.12 50.008 20.352 50.648C19.616 51.256 18.544 51.56 17.136 51.56ZM22.896 37.064C20.944 37.064 19.056 36.936 17.232 36.68C15.44 36.392 13.68 35.928 11.952 35.288L13.104 32.408C15.792 32.408 18.08 32.28 19.968 32.024C21.856 31.768 24.368 31.32 27.504 30.68C27.696 30.648 27.872 30.616 28.032 30.584C28.224 30.52 28.416 30.472 28.608 30.44C28.768 30.984 28.848 31.656 28.848 32.456C28.848 34.024 28.272 35.192 27.12 35.96C26 36.696 24.592 37.064 22.896 37.064ZM52.5638 66.2C51.3478 66.2 50.2758 65.8 49.3478 65C48.4518 64.168 47.4918 62.744 46.4678 60.728L37.8278 45.032C36.8358 43.272 35.8758 41.96 34.9478 41.096C34.0198 40.2 32.8838 39.512 31.5398 39.032C32.0838 38.136 32.7558 37.448 33.5558 36.968C34.3878 36.456 35.2678 36.2 36.1958 36.2C37.4438 36.2 38.5158 36.616 39.4118 37.448C40.3398 38.248 41.3158 39.672 42.3398 41.72L50.9318 57.368C51.9238 59.128 52.8838 60.456 53.8118 61.352C54.7718 62.248 55.9078 62.936 57.2198 63.416C56.6758 64.312 55.9878 65 55.1558 65.48C54.3558 65.96 53.4918 66.2 52.5638 66.2ZM32.4998 66.2C31.6678 66.2 30.9958 65.896 30.4838 65.288C29.9718 64.712 29.7158 63.944 29.7158 62.984C29.7158 61.896 30.2118 60.744 31.2038 59.528C32.1958 58.28 34.0358 56.664 36.7238 54.68L42.7718 49.976L44.4038 52.904C41.3638 54.984 39.1238 56.888 37.6838 58.616C36.2758 60.344 35.5718 61.864 35.5718 63.176C35.5718 63.816 35.6998 64.424 35.9558 65C35.5718 65.32 35.0598 65.592 34.4198 65.816C33.7798 66.072 33.1398 66.2 32.4998 66.2ZM43.8758 49.448C46.9158 47.368 49.1558 45.48 50.5958 43.784C52.0358 42.056 52.7558 40.536 52.7558 39.224C52.7558 38.52 52.6278 37.912 52.3718 37.4C52.7558 37.048 53.2518 36.76 53.8598 36.536C54.4998 36.28 55.1398 36.152 55.7798 36.152C56.6438 36.152 57.3318 36.456 57.8438 37.064C58.3558 37.64 58.6118 38.424 58.6118 39.416C58.6118 40.44 58.0998 41.592 57.0758 42.872C56.0838 44.12 54.2598 45.72 51.6038 47.672L45.5078 52.376L43.8758 49.448ZM74.178 65C72.578 65 71.058 64.872 69.618 64.616C69.234 63.944 69.042 63.192 69.042 62.36C72.562 62.36 75.65 61.752 78.306 60.536C80.994 59.288 83.058 57.56 84.498 55.352C85.97 53.112 86.706 50.536 86.706 47.624C86.706 45.448 86.242 43.752 85.314 42.536C84.418 41.32 83.154 40.712 81.522 40.712C79.89 40.712 78.37 41.48 76.962 43.016C75.586 44.52 74.338 46.744 73.218 49.688C72.098 52.6 71.09 56.2 70.194 60.488L71.346 42.2L73.842 44.024C74.962 41.528 76.402 39.608 78.162 38.264C79.922 36.888 81.81 36.2 83.826 36.2C85.554 36.2 87.074 36.664 88.386 37.592C89.73 38.52 90.754 39.848 91.458 41.576C92.194 43.272 92.562 45.24 92.562 47.48C92.562 50.712 91.746 53.672 90.114 56.36C88.514 59.016 86.306 61.128 83.49 62.696C80.674 64.232 77.57 65 74.178 65ZM66.882 74.6C65.89 74.6 65.138 74.264 64.626 73.592C64.114 72.952 63.858 71.96 63.858 70.616C63.858 69.368 64.29 65.832 65.154 60.008C66.05 54.152 67.138 47.704 68.418 40.664L66.306 38.264C67.074 37.656 67.97 37.16 68.994 36.776C70.018 36.392 70.962 36.2 71.826 36.2C72.722 36.2 73.362 36.408 73.746 36.824C74.13 37.208 74.322 37.88 74.322 38.84C74.322 39.48 74.21 40.36 73.986 41.48C73.794 42.568 73.458 44.136 72.978 46.184C71.89 50.92 71.026 55.176 70.386 58.952C69.778 62.696 69.474 66.504 69.474 70.376C69.474 70.984 69.57 71.544 69.762 72.056C69.954 72.6 70.194 73 70.482 73.256C70.002 73.704 69.458 74.04 68.85 74.264C68.242 74.488 67.586 74.6 66.882 74.6ZM110.733 66.2C107.341 66.2 104.685 65.16 102.765 63.08C100.845 61 99.8846 58.136 99.8846 54.488C99.8846 51.032 100.637 47.912 102.141 45.128C103.645 42.344 105.725 40.168 108.381 38.6C111.037 37 113.997 36.2 117.261 36.2C119.789 36.2 121.757 36.808 123.165 38.024C124.605 39.24 125.325 40.92 125.325 43.064C125.325 45.336 124.509 47.288 122.877 48.92C121.245 50.52 118.861 51.752 115.725 52.616C112.621 53.448 108.861 53.864 104.445 53.864L105.021 51.176C109.789 51.208 113.485 50.504 116.109 49.064C118.765 47.592 120.093 45.544 120.093 42.92C120.093 41.8 119.757 40.904 119.085 40.232C118.413 39.56 117.533 39.224 116.445 39.224C114.557 39.224 112.797 39.928 111.165 41.336C109.533 42.712 108.237 44.6 107.277 47C106.317 49.368 105.837 51.96 105.837 54.776C105.837 57.336 106.317 59.352 107.277 60.824C108.237 62.264 109.549 62.984 111.213 62.984C113.293 62.984 114.989 62.328 116.301 61.016C117.613 59.704 118.333 57.96 118.461 55.784C119.709 55.784 120.669 56.024 121.341 56.504C122.013 56.952 122.349 57.672 122.349 58.664C122.349 59.944 121.837 61.176 120.813 62.36C119.789 63.512 118.381 64.44 116.589 65.144C114.829 65.848 112.877 66.2 110.733 66.2ZM135.615 66.2C134.495 66.2 133.663 65.928 133.119 65.384C132.607 64.84 132.351 63.976 132.351 62.792C132.351 61.384 132.767 58.488 133.599 54.104C134.463 49.688 135.439 45.32 136.527 41L134.367 38.6C135.135 37.928 136.031 37.384 137.055 36.968C138.111 36.552 139.055 36.344 139.887 36.344C140.847 36.344 141.519 36.536 141.903 36.92C142.287 37.304 142.479 37.992 142.479 38.984C142.479 39.816 142.335 40.76 142.047 41.816C141.791 42.872 141.439 43.848 140.991 44.744L141.471 44.984C144.703 39.128 148.895 36.2 154.047 36.2C156.127 36.2 157.663 36.728 158.655 37.784C159.679 38.808 160.191 40.408 160.191 42.584C160.191 43.864 160.047 45.192 159.759 46.568C159.503 47.944 159.119 49.672 158.607 51.752C157.999 54.184 157.551 56.184 157.263 57.752C156.975 59.288 156.831 60.824 156.831 62.36C156.831 63.512 157.039 64.344 157.455 64.856C156.495 65.752 155.471 66.2 154.383 66.2C153.295 66.2 152.479 65.928 151.935 65.384C151.423 64.84 151.167 63.976 151.167 62.792C151.167 61.576 151.295 60.216 151.551 58.712C151.839 57.176 152.239 55.192 152.751 52.76C153.231 50.744 153.583 49.064 153.807 47.72C154.063 46.344 154.191 45.16 154.191 44.168C154.191 41.576 153.215 40.28 151.263 40.28C148.991 40.28 146.831 41.368 144.783 43.544C142.767 45.688 141.135 48.472 139.887 51.896C138.671 55.32 138.063 58.808 138.063 62.36C138.063 63.544 138.255 64.376 138.639 64.856C137.679 65.752 136.671 66.2 135.615 66.2ZM176.55 66.2C173.382 66.2 170.886 65.768 169.062 64.904C167.238 64.04 166.326 62.84 166.326 61.304C166.326 60.664 166.518 60.056 166.902 59.48C167.286 58.904 167.83 58.424 168.534 58.04C169.334 59.64 170.406 60.872 171.75 61.736C173.094 62.568 174.582 62.984 176.214 62.984C178.518 62.984 180.374 62.552 181.782 61.688C183.19 60.824 183.894 59.576 183.894 57.944C183.894 56.952 183.366 56.152 182.31 55.544C181.286 54.936 179.702 54.264 177.558 53.528C175.574 52.856 173.942 52.216 172.662 51.608C171.382 51 170.294 50.184 169.398 49.16C168.502 48.104 168.054 46.808 168.054 45.272C168.054 43.512 168.662 41.944 169.878 40.568C171.094 39.192 172.774 38.12 174.918 37.352C177.094 36.584 179.59 36.2 182.406 36.2C184.966 36.2 187.062 36.584 188.694 37.352C190.358 38.12 191.19 39.096 191.19 40.28C191.19 41.432 190.806 42.328 190.038 42.968C189.27 43.576 188.262 43.88 187.014 43.88C185.798 43.88 184.758 43.496 183.894 42.728C183.03 41.96 182.374 40.84 181.926 39.368C179.302 39.656 177.238 40.28 175.734 41.24C174.262 42.168 173.526 43.304 173.526 44.648C173.526 45.32 173.782 45.896 174.294 46.376C174.838 46.856 175.51 47.272 176.31 47.624C177.11 47.944 178.246 48.36 179.718 48.872C181.766 49.576 183.414 50.232 184.662 50.84C185.942 51.448 187.03 52.28 187.926 53.336C188.854 54.36 189.318 55.656 189.318 57.224C189.318 58.92 188.806 60.456 187.782 61.832C186.758 63.176 185.27 64.232 183.318 65C181.398 65.8 179.142 66.2 176.55 66.2ZM207.998 66.2C204.606 66.2 201.95 65.16 200.03 63.08C198.11 61 197.15 58.136 197.15 54.488C197.15 51.032 197.902 47.912 199.406 45.128C200.91 42.344 202.99 40.168 205.646 38.6C208.302 37 211.262 36.2 214.526 36.2C217.054 36.2 219.022 36.808 220.43 38.024C221.87 39.24 222.59 40.92 222.59 43.064C222.59 45.336 221.774 47.288 220.142 48.92C218.51 50.52 216.126 51.752 212.99 52.616C209.886 53.448 206.126 53.864 201.71 53.864L202.286 51.176C207.054 51.208 210.75 50.504 213.374 49.064C216.03 47.592 217.358 45.544 217.358 42.92C217.358 41.8 217.022 40.904 216.35 40.232C215.678 39.56 214.798 39.224 213.71 39.224C211.822 39.224 210.062 39.928 208.43 41.336C206.798 42.712 205.502 44.6 204.542 47C203.582 49.368 203.102 51.96 203.102 54.776C203.102 57.336 203.582 59.352 204.542 60.824C205.502 62.264 206.814 62.984 208.478 62.984C210.558 62.984 212.254 62.328 213.566 61.016C214.878 59.704 215.598 57.96 215.726 55.784C216.974 55.784 217.934 56.024 218.606 56.504C219.278 56.952 219.614 57.672 219.614 58.664C219.614 59.944 219.102 61.176 218.078 62.36C217.054 63.512 215.646 64.44 213.854 65.144C212.094 65.848 210.142 66.2 207.998 66.2ZM232.881 66.2C231.761 66.2 230.929 65.928 230.385 65.384C229.873 64.84 229.617 63.976 229.617 62.792C229.617 61.384 230.033 58.488 230.865 54.104C231.729 49.688 232.705 45.32 233.793 41L231.633 38.6C232.401 37.928 233.297 37.384 234.321 36.968C235.377 36.552 236.321 36.344 237.153 36.344C238.113 36.344 238.785 36.536 239.169 36.92C239.553 37.304 239.745 37.992 239.745 38.984C239.745 39.816 239.601 40.76 239.313 41.816C239.057 42.872 238.705 43.848 238.257 44.744L238.737 44.984C241.969 39.128 246.161 36.2 251.313 36.2C253.393 36.2 254.929 36.728 255.921 37.784C256.945 38.808 257.457 40.408 257.457 42.584C257.457 43.864 257.313 45.192 257.025 46.568C256.769 47.944 256.385 49.672 255.873 51.752C255.265 54.184 254.817 56.184 254.529 57.752C254.241 59.288 254.097 60.824 254.097 62.36C254.097 63.512 254.305 64.344 254.721 64.856C253.761 65.752 252.737 66.2 251.649 66.2C250.561 66.2 249.745 65.928 249.201 65.384C248.689 64.84 248.433 63.976 248.433 62.792C248.433 61.576 248.561 60.216 248.817 58.712C249.105 57.176 249.505 55.192 250.017 52.76C250.497 50.744 250.849 49.064 251.073 47.72C251.329 46.344 251.457 45.16 251.457 44.168C251.457 41.576 250.481 40.28 248.529 40.28C246.257 40.28 244.097 41.368 242.049 43.544C240.033 45.688 238.401 48.472 237.153 51.896C235.937 55.32 235.329 58.808 235.329 62.36C235.329 63.544 235.521 64.376 235.905 64.856C234.945 65.752 233.937 66.2 232.881 66.2ZM273.816 66.2C270.648 66.2 268.152 65.768 266.328 64.904C264.504 64.04 263.592 62.84 263.592 61.304C263.592 60.664 263.784 60.056 264.168 59.48C264.552 58.904 265.096 58.424 265.8 58.04C266.6 59.64 267.672 60.872 269.016 61.736C270.36 62.568 271.848 62.984 273.48 62.984C275.784 62.984 277.64 62.552 279.048 61.688C280.456 60.824 281.16 59.576 281.16 57.944C281.16 56.952 280.632 56.152 279.576 55.544C278.552 54.936 276.968 54.264 274.824 53.528C272.84 52.856 271.208 52.216 269.928 51.608C268.648 51 267.56 50.184 266.664 49.16C265.768 48.104 265.32 46.808 265.32 45.272C265.32 43.512 265.928 41.944 267.144 40.568C268.36 39.192 270.04 38.12 272.184 37.352C274.36 36.584 276.856 36.2 279.672 36.2C282.232 36.2 284.328 36.584 285.96 37.352C287.624 38.12 288.456 39.096 288.456 40.28C288.456 41.432 288.072 42.328 287.304 42.968C286.536 43.576 285.528 43.88 284.28 43.88C283.064 43.88 282.024 43.496 281.16 42.728C280.296 41.96 279.64 40.84 279.192 39.368C276.568 39.656 274.504 40.28 273 41.24C271.528 42.168 270.792 43.304 270.792 44.648C270.792 45.32 271.048 45.896 271.56 46.376C272.104 46.856 272.776 47.272 273.576 47.624C274.376 47.944 275.512 48.36 276.984 48.872C279.032 49.576 280.68 50.232 281.928 50.84C283.208 51.448 284.296 52.28 285.192 53.336C286.12 54.36 286.584 55.656 286.584 57.224C286.584 58.92 286.072 60.456 285.048 61.832C284.024 63.176 282.536 64.232 280.584 65C278.664 65.8 276.408 66.2 273.816 66.2ZM305.264 66.2C301.872 66.2 299.216 65.16 297.296 63.08C295.376 61 294.416 58.136 294.416 54.488C294.416 51.032 295.168 47.912 296.672 45.128C298.176 42.344 300.256 40.168 302.912 38.6C305.568 37 308.528 36.2 311.792 36.2C314.32 36.2 316.288 36.808 317.696 38.024C319.136 39.24 319.856 40.92 319.856 43.064C319.856 45.336 319.04 47.288 317.408 48.92C315.776 50.52 313.392 51.752 310.256 52.616C307.152 53.448 303.392 53.864 298.976 53.864L299.552 51.176C304.32 51.208 308.016 50.504 310.64 49.064C313.296 47.592 314.624 45.544 314.624 42.92C314.624 41.8 314.288 40.904 313.616 40.232C312.944 39.56 312.064 39.224 310.976 39.224C309.088 39.224 307.328 39.928 305.696 41.336C304.064 42.712 302.768 44.6 301.808 47C300.848 49.368 300.368 51.96 300.368 54.776C300.368 57.336 300.848 59.352 301.808 60.824C302.768 62.264 304.08 62.984 305.744 62.984C307.824 62.984 309.52 62.328 310.832 61.016C312.144 59.704 312.864 57.96 312.992 55.784C314.24 55.784 315.2 56.024 315.872 56.504C316.544 56.952 316.88 57.672 316.88 58.664C316.88 59.944 316.368 61.176 315.344 62.36C314.32 63.512 312.912 64.44 311.12 65.144C309.36 65.848 307.408 66.2 305.264 66.2Z" fill="black"/>
</svg>
